<?xml version="1.0" encoding="UTF-8"?>
<!DOCTYPE svg PUBLIC "-//W3C//DTD SVG 1.1//EN" "http://www.w3.org/Graphics/SVG/1.1/DTD/svg11.dtd">
<svg xmlns="http://www.w3.org/2000/svg" xmlns:xlink="http://www.w3.org/1999/xlink" version="1.1" width="1405px" height="1005px" viewBox="-0.5 -0.5 1405 1005" style="background-color: rgb(255, 255, 255);"><defs/><g><rect x="0" y="0" width="1400" height="100" fill="#ffffff" stroke="#000000" stroke-width="5" pointer-events="all"/><rect x="0" y="0" width="100" height="100" fill="#ffffff" stroke="#000000" stroke-width="5" pointer-events="all"/><rect x="100" y="0" width="100" height="100" fill="#ffffff" stroke="#000000" stroke-width="5" pointer-events="all"/><rect x="200" y="0" width="100" height="100" fill="#ffffff" stroke="#000000" stroke-width="5" pointer-events="all"/><rect x="300" y="0" width="100" height="100" fill="#ffffff" stroke="#000000" stroke-width="5" pointer-events="all"/><rect x="400" y="0" width="100" height="100" fill="#ffffff" stroke="#000000" stroke-width="5" pointer-events="all"/><rect x="500" y="0" width="100" height="100" fill="#ffffff" stroke="#000000" stroke-width="5" pointer-events="all"/><rect x="600" y="0" width="100" height="100" fill="#ffffff" stroke="#000000" stroke-width="5" pointer-events="all"/><rect x="700" y="0" width="100" height="100" fill="#666666" stroke="#000000" stroke-width="5" pointer-events="all"/><rect x="800" y="0" width="100" height="100" fill="#ffffff" stroke="#000000" stroke-width="5" pointer-events="all"/><rect x="900" y="0" width="100" height="100" fill="#ffffff" stroke="#000000" stroke-width="5" pointer-events="all"/><rect x="1000" y="0" width="100" height="100" fill="#ffffff" stroke="#000000" stroke-width="5" pointer-events="all"/><rect x="1100" y="0" width="100" height="100" fill="#ffffff" stroke="#000000" stroke-width="5" pointer-events="all"/><rect x="1200" y="0" width="100" height="100" fill="#ffffff" stroke="#000000" stroke-width="5" pointer-events="all"/><rect x="1300" y="0" width="100" height="100" fill="#ffffff" stroke="#000000" stroke-width="5" pointer-events="all"/><rect x="0" y="300" width="1400" height="100" fill="#ffffff" stroke="#000000" stroke-width="5" pointer-events="all"/><rect x="0" y="300" width="100" height="100" fill="#ffffff" stroke="#000000" stroke-width="5" pointer-events="all"/><rect x="100" y="300" width="100" height="100" fill="#ffffff" stroke="#000000" stroke-width="5" pointer-events="all"/><rect x="200" y="300" width="100" height="100" fill="#ffffff" stroke="#000000" stroke-width="5" pointer-events="all"/><rect x="300" y="300" width="100" height="100" fill="#ffffff" stroke="#000000" stroke-width="5" pointer-events="all"/><rect x="400" y="300" width="100" height="100" fill="#ffffff" stroke="#000000" stroke-width="5" pointer-events="all"/><rect x="500" y="300" width="100" height="100" fill="#ffffff" stroke="#000000" stroke-width="5" pointer-events="all"/><rect x="600" y="300" width="100" height="100" fill="#666666" stroke="#000000" stroke-width="5" pointer-events="all"/><rect x="700" y="300" width="100" height="100" fill="#b3b3b3" stroke="#000000" stroke-width="5" pointer-events="all"/><rect x="800" y="300" width="100" height="100" fill="#b3b3b3" stroke="#000000" stroke-width="5" pointer-events="all"/><rect x="900" y="300" width="100" height="100" fill="#ffffff" stroke="#000000" stroke-width="5" pointer-events="all"/><rect x="1000" y="300" width="100" height="100" fill="#ffffff" stroke="#000000" stroke-width="5" pointer-events="all"/><rect x="1100" y="300" width="100" height="100" fill="#ffffff" stroke="#000000" stroke-width="5" pointer-events="all"/><rect x="1200" y="300" width="100" height="100" fill="#ffffff" stroke="#000000" stroke-width="5" pointer-events="all"/><rect x="1300" y="300" width="100" height="100" fill="#ffffff" stroke="#000000" stroke-width="5" pointer-events="all"/><rect x="0" y="600" width="1400" height="100" fill="#ffffff" stroke="#000000" stroke-width="5" pointer-events="all"/><rect x="0" y="600" width="100" height="100" fill="#ffffff" stroke="#000000" stroke-width="5" pointer-events="all"/><rect x="100" y="600" width="100" height="100" fill="#ffffff" stroke="#000000" stroke-width="5" pointer-events="all"/><rect x="200" y="600" width="100" height="100" fill="#ffffff" stroke="#000000" stroke-width="5" pointer-events="all"/><rect x="300" y="600" width="100" height="100" fill="#ffffff" stroke="#000000" stroke-width="5" pointer-events="all"/><rect x="400" y="600" width="100" height="100" fill="#ffffff" stroke="#000000" stroke-width="5" pointer-events="all"/><rect x="500" y="600" width="100" height="100" fill="#b3b3b3" stroke="#000000" stroke-width="5" pointer-events="all"/><rect x="600" y="600" width="100" height="100" fill="#ffffff" stroke="#000000" stroke-width="5" pointer-events="all"/><rect x="700" y="600" width="100" height="100" fill="#ffffff" stroke="#000000" stroke-width="5" pointer-events="all"/><rect x="800" y="600" width="100" height="100" fill="#666666" stroke="#000000" stroke-width="5" pointer-events="all"/><rect x="900" y="600" width="100" height="100" fill="#b3b3b3" stroke="#000000" stroke-width="5" pointer-events="all"/><rect x="1000" y="600" width="100" height="100" fill="#ffffff" stroke="#000000" stroke-width="5" pointer-events="all"/><rect x="1100" y="600" width="100" height="100" fill="#ffffff" stroke="#000000" stroke-width="5" pointer-events="all"/><rect x="1200" y="600" width="100" height="100" fill="#ffffff" stroke="#000000" stroke-width="5" pointer-events="all"/><rect x="1300" y="600" width="100" height="100" fill="#ffffff" stroke="#000000" stroke-width="5" pointer-events="all"/><rect x="0" y="900" width="1400" height="100" fill="#ffffff" stroke="#000000" stroke-width="5" pointer-events="all"/><rect x="0" y="900" width="100" height="100" fill="#ffffff" stroke="#000000" stroke-width="5" pointer-events="all"/><rect x="100" y="900" width="100" height="100" fill="#ffffff" stroke="#000000" stroke-width="5" pointer-events="all"/><rect x="200" y="900" width="100" height="100" fill="#ffffff" stroke="#000000" stroke-width="5" pointer-events="all"/><rect x="300" y="900" width="100" height="100" fill="#ffffff" stroke="#000000" stroke-width="5" pointer-events="all"/><rect x="400" y="900" width="100" height="100" fill="#b3b3b3" stroke="#000000" stroke-width="5" pointer-events="all"/><rect x="500" y="900" width="100" height="100" fill="#666666" stroke="#000000" stroke-width="5" pointer-events="all"/><rect x="600" y="900" width="100" height="100" fill="#b3b3b3" stroke="#000000" stroke-width="5" pointer-events="all"/><rect x="700" y="900" width="100" height="100" fill="#b3b3b3" stroke="#000000" stroke-width="5" pointer-events="all"/><rect x="800" y="900" width="100" height="100" fill="#ffffff" stroke="#000000" stroke-width="5" pointer-events="all"/><rect x="900" y="900" width="100" height="100" fill="#b3b3b3" stroke="#000000" stroke-width="5" pointer-events="all"/><rect x="1000" y="900" width="100" height="100" fill="#b3b3b3" stroke="#000000" stroke-width="5" pointer-events="all"/><rect x="1100" y="900" width="100" height="100" fill="#ffffff" stroke="#000000" stroke-width="5" pointer-events="all"/><rect x="1200" y="900" width="100" height="100" fill="#ffffff" stroke="#000000" stroke-width="5" pointer-events="all"/><rect x="1300" y="900" width="100" height="100" fill="#ffffff" stroke="#000000" stroke-width="5" pointer-events="all"/><path d="M 750 100 L 664.24 271.52" fill="none" stroke="#000000" stroke-width="5" stroke-miterlimit="10" pointer-events="stroke"/><path d="M 652.5 295 L 652.5 255.87 L 664.24 271.52 L 683.8 271.52 Z" fill="#000000" stroke="#000000" stroke-width="5" stroke-miterlimit="10" pointer-events="all"/><path d="M 650 400 L 827.49 577.49" fill="none" stroke="#000000" stroke-width="5" stroke-miterlimit="10" pointer-events="stroke"/><path d="M 846.05 596.05 L 808.92 583.67 L 827.49 577.49 L 833.67 558.92 Z" fill="#000000" stroke="#000000" stroke-width="5" stroke-miterlimit="10" pointer-events="all"/><path d="M 850 700 L 576.49 882.34" fill="none" stroke="#000000" stroke-width="5" stroke-miterlimit="10" pointer-events="stroke"/><path d="M 554.65 896.9 L 574.07 862.92 L 576.49 882.34 L 593.48 892.05 Z" fill="#000000" stroke="#000000" stroke-width="5" stroke-miterlimit="10" pointer-events="all"/></g></svg>